<?xml version="1.0" standalone="no"?>
<!DOCTYPE svg PUBLIC "-//W3C//DTD SVG 20010904//EN"
 "http://www.w3.org/TR/2001/REC-SVG-20010904/DTD/svg10.dtd">
<svg version="1.0" xmlns="http://www.w3.org/2000/svg"
 width="2053.000000pt" height="1828.000000pt" viewBox="0 0 2053.000000 1828.000000"
 preserveAspectRatio="xMidYMid meet">

<g transform="translate(0.000000,1828.000000) scale(0.100000,-0.100000)"
fill="#000000" stroke="none">
<path d="M16205 16215 c-1234 -139 -5443 -607 -9425 -1050 -1262 -140 -2312
-258 -2332 -261 l-38 -6 0 -3039 0 -3039 -645 0 -645 0 0 -29 c0 -47 28 -295
50 -446 180 -1232 751 -2366 1665 -3304 619 -635 1426 -1178 2305 -1550 80
-34 160 -68 178 -76 l32 -15 0 -700 0 -700 2933 2 2932 3 3 701 2 700 38 13
c99 36 400 174 611 281 967 489 1749 1126 2376 1934 713 919 1108 1940 1200
3104 l7 82 -4276 0 -4276 0 0 1615 0 1615 4285 0 4285 0 -2 448 -3 447 -4283
0 -4282 0 0 780 0 780 2338 259 c1285 142 3212 356 4282 475 l1945 216 3 448
2 447 -37 -1 c-21 -1 -573 -61 -1228 -134z m-8207 -2535 l-3 -730 -445 0 -445
0 -3 678 -2 679 267 32 c148 18 333 40 413 50 80 10 162 19 183 20 l37 1 -2
-730z m-1800 -95 l-3 -635 -443 -3 -442 -2 0 582 0 581 38 6 c34 5 219 28 637
76 94 11 177 22 185 24 8 2 18 4 23 5 4 0 6 -285 5 -634z m2 -3150 l0 -1615
-445 0 -445 0 0 1615 0 1615 445 0 445 0 0 -1615z m1798 -2 l2 -1613 -450 0
-450 0 0 1608 c0 885 3 1612 7 1615 3 4 205 6 447 5 l441 -3 3 -1612z m8152
-2683 c0 -6 -20 -63 -44 -128 -206 -550 -508 -1059 -922 -1557 -139 -168 -534
-563 -694 -695 -254 -211 -549 -416 -845 -590 -229 -134 -677 -349 -1040 -500
-187 -77 -368 -153 -402 -168 l-63 -26 0 -503 0 -503 -1855 0 -1855 0 0 503 0
502 -357 149 c-426 177 -640 273 -823 369 -620 324 -1089 663 -1535 1112 -595
597 -1025 1267 -1291 2008 l-13 37 5869 0 c4054 0 5870 -3 5870 -10z"/>
</g>
</svg>
